<?xml version="1.0" encoding="UTF-8" standalone="no"?>
<!DOCTYPE svg PUBLIC "-//W3C//DTD SVG 1.1//EN" "http://www.w3.org/Graphics/SVG/1.1/DTD/svg11.dtd">
<svg width="100%" height="100%" viewBox="0 0 121 74" version="1.1" xmlns="http://www.w3.org/2000/svg" xmlns:xlink="http://www.w3.org/1999/xlink" xml:space="preserve" xmlns:serif="http://www.serif.com/" style="fill-rule:evenodd;clip-rule:evenodd;stroke-linejoin:round;stroke-miterlimit:2;">
    <g transform="matrix(1,0,0,1,-456.033,-137)">
        <g id="Logo-Final" serif:id="Logo Final" transform="matrix(0.991767,0,0,1.00403,303.425,-1.03506)">
            <rect x="153.874" y="137.481" width="122.004" height="73.703" style="fill:none;"/>
            <clipPath id="_clip1">
                <rect x="153.874" y="137.481" width="122.004" height="73.703"/>
            </clipPath>
            <g clip-path="url(#_clip1)">
                <g id="Ellipse" transform="matrix(1.0356,0,0,1.03549,345.63,61.6207)">
                    <g transform="matrix(1.12186,0,-0.0130665,1.08867,-344.42,-12.818)">
                        <ellipse cx="196.667" cy="110.502" rx="51.687" ry="31.172" style="fill:rgb(59,110,165);"/>
                    </g>
                    <g transform="matrix(1.14034,0,-0.0134676,1.12209,-349.045,-14.5345)">
                        <ellipse cx="196.667" cy="110.502" rx="51.687" ry="31.172" style="fill:rgb(3,19,35);"/>
                    </g>
                    <g transform="matrix(1.11931,0,0,1.07367,-345.495,-10.6937)">
                        <ellipse cx="196.667" cy="110.502" rx="51.687" ry="31.172" style="fill:rgb(9,53,69);"/>
                    </g>
                </g>
                <g transform="matrix(1.0356,0,0,1.03549,345.204,62.3798)">
                    <g id="Fishbone">
                        <g>
                            <g transform="matrix(0.973643,0,0,0.961844,-4.70028,5.72737)">
                                <g transform="matrix(1,0,0,1,-1560.11,-2265.92)">
                                    <g transform="matrix(1,0,0,1,-697.271,107.563)">
                                        <path d="M2102.87,2241.58C2113.3,2259.95 2111.25,2273.11 2103.4,2294.2L2106.22,2289.85C2115.16,2269.5 2116.52,2264.37 2107.79,2243.19L2102.87,2241.58Z"/>
                                    </g>
                                    <g transform="matrix(1,0,0,1,-697.19,107.196)">
                                        <path d="M2135.78,2241.81C2143.38,2262.59 2145.35,2279.36 2137.32,2300.14L2140.88,2295.02C2148.9,2273.33 2147.6,2260.77 2139.99,2239.08L2135.78,2241.81Z"/>
                                    </g>
                                    <g transform="matrix(1,0,0,1,-697.19,107.196)">
                                        <path d="M2121.34,2233.2L2119.15,2238.65C2126.37,2261.08 2128.27,2277.79 2120.7,2298.98L2124.24,2293.52C2132.44,2271.47 2131.22,2260.29 2123.39,2238.65L2121.34,2233.2Z"/>
                                    </g>
                                    <g transform="matrix(1,0,0,1,-690.859,137.595)">
                                        <path d="M2145.01,2236.28C2140.74,2234.05 2127.85,2233.98 2123.11,2235.69L2123.22,2238.08C2128.04,2239.16 2141.03,2240.2 2145.05,2238.64L2145.01,2236.28Z"/>
                                    </g>
                                    <g transform="matrix(0.92616,-0.377131,-0.377131,-0.92616,308.778,5244.11)">
                                        <path d="M2121.34,2233.2C2113.9,2234.8 2102.11,2239.67 2096.35,2242.47C2096.35,2242.47 2117.61,2238.64 2122.24,2236.44L2120.56,2233.38"/>
                                    </g>
                                </g>
                                <g transform="matrix(0.842131,0,0,0.842337,-24.2034,17.2613)">
                                    <path d="M-151.156,110.322C-159.01,124.087 -170.025,133.82 -183.218,140.773C-174.848,121.783 -178.208,93.58 -181.558,87.111C-180.852,86.211 -178.244,83.208 -178.08,83.171C-178.08,83.171 -157.695,99.508 -151.156,110.322ZM-156.981,110.322C-161.293,117.878 -167.339,123.221 -174.581,127.038C-170.114,115.368 -170.458,104.265 -174.581,93.606C-167.218,98.109 -161.11,103.493 -156.981,110.322Z"/>
                                </g>
                                <g transform="matrix(2.01216,-0.0618577,0,1.9704,-354.968,42.8946)">
                                    <path d="M144.097,36.787C140.459,42.649 134.933,46.62 127.556,48.737C122.285,40.851 122.558,32.896 127.556,24.837C134.194,26.963 140.106,30.289 144.097,36.787ZM132.65,30.732C134.597,30.732 136.179,32.314 136.179,34.261C136.179,36.209 134.597,37.79 132.65,37.79C130.702,37.79 129.121,36.209 129.121,34.261C129.121,32.314 130.702,30.732 132.65,30.732Z"/>
                                </g>
                            </g>
                            <g transform="matrix(0.973643,0,0,0.961844,-1.77935,2.84184)">
                                <g transform="matrix(1,0,0,1,-1560.11,-2265.92)">
                                    <g transform="matrix(1,0,0,1,-697.271,107.563)">
                                        <path d="M2102.87,2241.58C2113.3,2259.95 2111.25,2273.11 2103.4,2294.2L2106.22,2289.85C2115.16,2269.5 2116.52,2264.37 2107.79,2243.19L2102.87,2241.58Z" style="fill:white;"/>
                                    </g>
                                    <g transform="matrix(1,0,0,1,-697.19,107.196)">
                                        <path d="M2135.78,2241.81C2143.38,2262.59 2145.35,2279.36 2137.32,2300.14L2140.88,2295.02C2148.9,2273.33 2147.6,2260.77 2139.99,2239.08L2135.78,2241.81Z" style="fill:white;"/>
                                    </g>
                                    <g transform="matrix(1,0,0,1,-697.19,107.196)">
                                        <path d="M2121.34,2233.2L2119.15,2238.65C2126.37,2261.08 2128.27,2277.79 2120.7,2298.98L2124.24,2293.52C2132.44,2271.47 2131.22,2260.29 2123.39,2238.65L2121.34,2233.2Z" style="fill:white;"/>
                                    </g>
                                    <g transform="matrix(1,0,0,1,-690.859,137.595)">
                                        <path d="M2144.98,2236.73C2140.7,2234.5 2127.85,2233.98 2123.11,2235.69L2123.22,2238.08C2128.04,2239.16 2141.03,2240.2 2145.05,2238.64L2144.98,2236.73Z" style="fill:white;"/>
                                    </g>
                                    <g transform="matrix(0.92616,-0.377131,-0.377131,-0.92616,308.778,5244.11)">
                                        <path d="M2119.04,2234.03C2111.35,2235 2102.11,2239.67 2096.35,2242.47C2096.35,2242.47 2116.87,2239.92 2120.07,2236.41L2120.66,2233.36" style="fill:white;"/>
                                    </g>
                                </g>
                                <g transform="matrix(0.842935,0,0,0.842935,-24.6903,17.4077)">
                                    <path d="M-151.156,110.322C-159.01,124.087 -170.025,133.82 -183.218,140.773C-175.079,119.515 -175.707,99.288 -183.218,79.871C-169.804,88.075 -158.678,97.882 -151.156,110.322ZM-156.981,110.322C-161.293,117.878 -167.339,123.221 -174.581,127.038C-170.114,115.368 -170.458,104.265 -174.581,93.606C-167.218,98.109 -161.11,103.493 -156.981,110.322Z" style="fill:white;"/>
                                </g>
                                <g transform="matrix(1.9704,0,0,1.9704,-351.017,35.2947)">
                                    <path d="M144.097,36.787C140.459,42.649 134.933,46.62 127.556,48.737C122.398,40.912 122.637,32.939 127.556,24.837C134.194,26.963 140.106,30.289 144.097,36.787ZM132.65,30.732C134.597,30.732 136.179,32.314 136.179,34.261C136.179,36.209 134.597,37.79 132.65,37.79C130.702,37.79 129.121,36.209 129.121,34.261C129.121,32.314 130.702,30.732 132.65,30.732Z" style="fill:white;"/>
                                </g>
                            </g>
                            <g transform="matrix(0.769508,-0.589293,0.596522,0.760183,-285.791,183.635)">
                                <path d="M147.22,-11.002L148.617,-6.314C147.216,-6.302 147.297,-6.44 144.969,-5.889L147.22,-11.002Z"/>
                            </g>
                        </g>
                    </g>
                </g>
            </g>
        </g>
        <g>
            <g>
                <g id="Ellipse1" serif:id="Ellipse" transform="matrix(1.02707,0,0,1.03967,268.948,87.3064)">
                    <g transform="matrix(1.12186,0,-0.0130665,1.08867,-344.42,-12.818)">
                        <path d="M196.667,79.33C200.358,79.33 204.049,79.563 207.708,80.044C210.762,80.445 213.794,81.019 216.778,81.781C219.221,82.404 221.632,83.154 223.991,84.043C225.878,84.753 227.732,85.553 229.537,86.452C238.76,91.043 248.354,99.303 248.354,110.502C248.354,121.701 238.76,129.961 229.537,134.552C227.732,135.451 225.878,136.25 223.991,136.961C221.632,137.85 219.221,138.599 216.778,139.223C213.794,139.985 210.762,140.559 207.708,140.96C204.049,141.441 200.358,141.674 196.667,141.674C192.977,141.674 189.286,141.441 185.627,140.96C182.573,140.559 179.541,139.985 176.556,139.223C174.114,138.599 171.703,137.85 169.343,136.961C167.456,136.25 165.603,135.451 163.797,134.552C154.574,129.961 144.98,121.701 144.98,110.502C144.98,99.303 154.574,91.043 163.797,86.452C165.603,85.553 167.456,84.753 169.343,84.043C171.703,83.154 174.114,82.404 176.556,81.781C179.541,81.019 182.573,80.445 185.627,80.044C189.286,79.563 192.977,79.33 196.667,79.33Z" style="fill:rgb(59,110,165);"/>
                    </g>
                    <g transform="matrix(1.14034,0,-0.0134676,1.12209,-349.045,-14.5345)">
                        <path d="M196.667,79.33C200.358,79.33 204.049,79.563 207.708,80.044C210.762,80.445 213.794,81.019 216.778,81.781C219.221,82.404 221.632,83.154 223.991,84.043C225.878,84.753 227.732,85.553 229.537,86.452C238.76,91.043 248.354,99.303 248.354,110.502C248.354,121.701 238.76,129.961 229.537,134.552C227.732,135.451 225.878,136.25 223.991,136.961C221.632,137.85 219.221,138.599 216.778,139.223C213.794,139.985 210.762,140.559 207.708,140.96C204.049,141.441 200.358,141.674 196.667,141.674C192.977,141.674 189.286,141.441 185.627,140.96C182.573,140.559 179.541,139.985 176.556,139.223C174.114,138.599 171.703,137.85 169.343,136.961C167.456,136.25 165.603,135.451 163.797,134.552C154.574,129.961 144.98,121.701 144.98,110.502C144.98,99.303 154.574,91.043 163.797,86.452C165.603,85.553 167.456,84.753 169.343,84.043C171.703,83.154 174.114,82.404 176.556,81.781C179.541,81.019 182.573,80.445 185.627,80.044C189.286,79.563 192.977,79.33 196.667,79.33Z" style="fill:rgb(3,19,35);"/>
                    </g>
                    <g transform="matrix(1.11931,0,0,1.07367,-345.495,-10.6937)">
                        <path d="M196.667,79.33C200.358,79.33 204.049,79.563 207.708,80.044C210.762,80.445 213.794,81.019 216.778,81.781C219.221,82.404 221.632,83.154 223.991,84.043C225.878,84.753 227.732,85.553 229.537,86.452C238.76,91.043 248.354,99.303 248.354,110.502C248.354,121.701 238.76,129.961 229.537,134.552C227.732,135.451 225.878,136.25 223.991,136.961C221.632,137.85 219.221,138.599 216.778,139.223C213.794,139.985 210.762,140.559 207.708,140.96C204.049,141.441 200.358,141.674 196.667,141.674C192.977,141.674 189.286,141.441 185.627,140.96C182.573,140.559 179.541,139.985 176.556,139.223C174.114,138.599 171.703,137.85 169.343,136.961C167.456,136.25 165.603,135.451 163.797,134.552C154.574,129.961 144.98,121.701 144.98,110.502C144.98,99.303 154.574,91.043 163.797,86.452C165.603,85.553 167.456,84.753 169.343,84.043C171.703,83.154 174.114,82.404 176.556,81.781C179.541,81.019 182.573,80.445 185.627,80.044C189.286,79.563 192.977,79.33 196.667,79.33Z" style="fill:rgb(9,53,69);"/>
                    </g>
                </g>
                <g transform="matrix(1.02707,0,0,1.03967,268.525,88.0686)">
                    <g id="Fishbone1" serif:id="Fishbone">
                        <g>
                            <g transform="matrix(0.973643,0,0,0.961844,-4.70028,5.72737)">
                                <g transform="matrix(1,0,0,1,-1560.11,-2265.92)">
                                    <g transform="matrix(1,0,0,1,-697.271,107.563)">
                                        <path d="M2102.87,2241.58C2105.53,2246.26 2107.74,2251.25 2108.95,2256.52C2111.89,2269.37 2107.86,2282.2 2103.4,2294.2C2104.34,2292.75 2105.28,2291.3 2106.22,2289.85C2109.44,2282.52 2113.27,2274.7 2113.65,2266.53C2114.02,2258.43 2110.81,2250.52 2107.79,2243.19C2106.15,2242.65 2104.51,2242.11 2102.87,2241.58Z"/>
                                    </g>
                                    <g transform="matrix(1,0,0,1,-697.19,107.196)">
                                        <path d="M2135.78,2241.81C2139.62,2252.29 2142.55,2263.26 2142.48,2274.5C2142.43,2283.3 2140.49,2291.95 2137.32,2300.14C2138.51,2298.43 2139.7,2296.73 2140.88,2295.02C2143.96,2286.69 2146.29,2277.99 2146.32,2269.06C2146.36,2258.74 2143.38,2248.73 2139.99,2239.08C2138.59,2239.99 2137.19,2240.9 2135.78,2241.81Z"/>
                                    </g>
                                    <g transform="matrix(1,0,0,1,-697.19,107.196)">
                                        <path d="M2121.34,2233.2C2120.61,2235.02 2119.88,2236.84 2119.15,2238.65C2122.76,2249.86 2125.67,2261.48 2125.54,2273.34C2125.45,2282.11 2123.64,2290.74 2120.7,2298.98C2121.88,2297.16 2123.06,2295.34 2124.24,2293.52C2127.34,2285.18 2129.86,2276.46 2129.85,2267.48C2129.84,2257.53 2126.74,2247.91 2123.39,2238.65C2122.7,2236.84 2122.02,2235.02 2121.34,2233.2Z"/>
                                    </g>
                                    <g transform="matrix(1,0,0,1,-690.859,137.595)">
                                        <path d="M2145.01,2236.28C2142.97,2235.22 2140.48,2234.95 2138.23,2234.73C2135.06,2234.43 2131.84,2234.41 2128.67,2234.68C2126.81,2234.84 2124.88,2235.06 2123.11,2235.69C2123.15,2236.49 2123.18,2237.29 2123.22,2238.08C2127.9,2239.12 2132.87,2239.41 2137.64,2239.43C2140.04,2239.44 2142.77,2239.52 2145.05,2238.64C2145.04,2237.86 2145.03,2237.07 2145.01,2236.28Z"/>
                                    </g>
                                    <g transform="matrix(0.92616,-0.377131,-0.377131,-0.92616,308.778,5244.11)">
                                        <path d="M2121.34,2233.2C2117.16,2234.1 2113.08,2235.55 2109.08,2237.06C2104.77,2238.68 2100.5,2240.45 2096.35,2242.47C2101.96,2241.45 2107.55,2240.34 2113.11,2239.06C2116.13,2238.37 2119.42,2237.78 2122.24,2236.44C2121.68,2235.42 2121.12,2234.4 2120.56,2233.38"/>
                                    </g>
                                </g>
                                <g transform="matrix(0.842131,0,0,0.842337,-24.2034,17.2613)">
                                    <path d="M-151.156,110.322C-158.647,123.451 -169.873,133.74 -183.218,140.773C-180.914,135.545 -179.583,129.916 -178.811,124.27C-177.821,117.026 -177.724,109.64 -178.365,102.359C-178.647,99.165 -179.069,95.973 -179.75,92.838C-180.17,90.905 -180.642,88.88 -181.558,87.111C-180.771,86.107 -179.917,85.147 -179.066,84.196C-178.871,83.978 -178.415,83.246 -178.08,83.171C-172.476,87.662 -167.082,92.483 -161.982,97.538C-158.059,101.425 -154.034,105.562 -151.156,110.322ZM-156.981,110.322C-161.091,117.526 -167.269,123.184 -174.581,127.038C-170.418,116.163 -170.37,104.493 -174.581,93.606C-167.626,97.86 -161.237,103.283 -156.981,110.322Z"/>
                                </g>
                                <g transform="matrix(2.01216,-0.0618577,0,1.9704,-354.968,42.8946)">
                                    <path d="M144.097,36.787C140.343,42.838 134.331,46.793 127.556,48.737C126.401,47.008 125.429,45.149 124.753,43.18C122.59,36.875 124.121,30.375 127.556,24.837C134.264,26.985 140.34,30.671 144.097,36.787ZM132.65,30.732C134.572,30.732 136.179,32.339 136.179,34.261C136.179,36.184 134.572,37.79 132.65,37.79C130.728,37.79 129.121,36.184 129.121,34.261C129.121,32.339 130.728,30.732 132.65,30.732Z"/>
                                </g>
                            </g>
                            <g transform="matrix(0.973643,0,0,0.961844,-1.77935,2.84184)">
                                <g transform="matrix(1,0,0,1,-1560.11,-2265.92)">
                                    <g transform="matrix(1,0,0,1,-697.271,107.563)">
                                        <path d="M2102.87,2241.58C2105.53,2246.26 2107.74,2251.25 2108.95,2256.52C2111.89,2269.37 2107.86,2282.2 2103.4,2294.2C2104.34,2292.75 2105.28,2291.3 2106.22,2289.85C2109.44,2282.52 2113.27,2274.7 2113.65,2266.53C2114.02,2258.43 2110.81,2250.52 2107.79,2243.19C2106.15,2242.65 2104.51,2242.11 2102.87,2241.58Z" style="fill:white;"/>
                                    </g>
                                    <g transform="matrix(1,0,0,1,-697.19,107.196)">
                                        <path d="M2135.78,2241.81C2139.62,2252.29 2142.55,2263.26 2142.48,2274.5C2142.43,2283.3 2140.49,2291.95 2137.32,2300.14C2138.51,2298.43 2139.7,2296.73 2140.88,2295.02C2143.96,2286.69 2146.29,2277.99 2146.32,2269.06C2146.36,2258.74 2143.38,2248.73 2139.99,2239.08C2138.59,2239.99 2137.19,2240.9 2135.78,2241.81Z" style="fill:white;"/>
                                    </g>
                                    <g transform="matrix(1,0,0,1,-697.19,107.196)">
                                        <path d="M2121.34,2233.2C2120.61,2235.02 2119.88,2236.84 2119.15,2238.65C2122.76,2249.86 2125.67,2261.48 2125.54,2273.34C2125.45,2282.11 2123.64,2290.74 2120.7,2298.98C2121.88,2297.16 2123.06,2295.34 2124.24,2293.52C2127.34,2285.18 2129.86,2276.46 2129.85,2267.48C2129.84,2257.53 2126.74,2247.91 2123.39,2238.65C2122.7,2236.84 2122.02,2235.02 2121.34,2233.2Z" style="fill:white;"/>
                                    </g>
                                    <g transform="matrix(1,0,0,1,-690.859,137.595)">
                                        <path d="M2144.98,2236.73C2142.93,2235.66 2140.46,2235.33 2138.21,2235.06C2135.05,2234.68 2131.84,2234.57 2128.66,2234.77C2126.81,2234.88 2124.87,2235.06 2123.11,2235.69C2123.15,2236.49 2123.18,2237.29 2123.22,2238.08C2127.9,2239.12 2132.87,2239.41 2137.64,2239.43C2140.04,2239.44 2142.77,2239.52 2145.05,2238.64C2145.03,2238.01 2145,2237.37 2144.98,2236.73Z" style="fill:white;"/>
                                    </g>
                                    <g transform="matrix(0.92616,-0.377131,-0.377131,-0.92616,308.778,5244.11)">
                                        <path d="M2119.04,2234.03C2111.03,2235.04 2103.5,2239 2096.35,2242.47C2101.98,2241.77 2107.66,2240.83 2113.15,2239.37C2114.78,2238.94 2116.42,2238.45 2117.96,2237.76C2118.71,2237.42 2119.51,2237.03 2120.07,2236.41C2120.26,2235.39 2120.47,2234.37 2120.66,2233.36" style="fill:white;"/>
                                    </g>
                                </g>
                                <g transform="matrix(0.842935,0,0,0.842935,-24.6903,17.4077)">
                                    <path d="M-151.156,110.322C-158.647,123.451 -169.873,133.74 -183.218,140.773C-179.587,131.289 -177.456,121.23 -177.351,111.059C-177.24,100.388 -179.374,89.807 -183.218,79.871C-170.553,87.617 -158.903,97.51 -151.156,110.322ZM-156.981,110.322C-161.091,117.526 -167.269,123.184 -174.581,127.038C-170.418,116.163 -170.37,104.493 -174.581,93.606C-167.626,97.86 -161.237,103.283 -156.981,110.322Z" style="fill:white;"/>
                                </g>
                                <g transform="matrix(1.9704,0,0,1.9704,-351.017,35.2947)">
                                    <path d="M144.097,36.787C140.343,42.838 134.331,46.793 127.556,48.737C126.422,47.015 125.471,45.166 124.81,43.211C122.68,36.91 124.178,30.4 127.556,24.837C134.264,26.985 140.34,30.671 144.097,36.787ZM132.65,30.732C134.572,30.732 136.179,32.339 136.179,34.261C136.179,36.184 134.572,37.79 132.65,37.79C130.728,37.79 129.121,36.184 129.121,34.261C129.121,32.339 130.728,30.732 132.65,30.732Z" style="fill:white;"/>
                                </g>
                            </g>
                            <g transform="matrix(0.769508,-0.589293,0.596522,0.760183,-285.791,183.635)">
                                <path d="M147.22,-11.002C147.686,-9.439 148.151,-7.876 148.617,-6.314C147.337,-6.303 146.225,-6.186 144.969,-5.889C145.719,-7.593 146.47,-9.298 147.22,-11.002Z"/>
                            </g>
                        </g>
                    </g>
                </g>
            </g>
        </g>
        <g id="Swatches">
        </g>
    </g>
</svg>
